<?xml version="1.0" standalone="no"?>
 <!DOCTYPE svg PUBLIC "-//W3C//DTD SVG 1.1//EN" 
 "http://www.w3.org/Graphics/SVG/1.1/DTD/svg11.dtd"> 
<svg
  xmlns:svg="http://www.w3.org/2000/svg"
  xmlns="http://www.w3.org/2000/svg"
  xmlns:xlink="http://www.w3.org/1999/xlink"
  version="1.1"
  width="297.0022mm" height="210.0072mm" viewBox="0.0000 0.0000 297.0022 210.0072">
<title>SVG Image created as arduino_8-F_Silkscreen.svg date 2023/03/27 23:54:38 </title>
  <desc>Image generated by PCBNEW </desc>
<g style="fill:#000000; fill-opacity:1.0000;stroke:#000000; stroke-opacity:1.0000;
stroke-linecap:round; stroke-linejoin:round;"
 transform="translate(0 0) scale(1 1)">
</g>
<g style="fill:#000000; fill-opacity:0.0; 
stroke:#000000; stroke-width:0.0000; stroke-opacity:1; 
stroke-linecap:round; stroke-linejoin:round;">
</g>
<g style="fill:#000000; fill-opacity:0.0; 
stroke:#000000; stroke-width:0.1500; stroke-opacity:1; 
stroke-linecap:round; stroke-linejoin:round;">
<text x="19.7104" y="15.2400"
textLength="34.9845" font-size="1.3333" lengthAdjust="spacingAndGlyphs"
text-anchor="start" opacity="0">External wire path for TX and RX and 5V of D2</text>
<g class="stroked-text"><desc>External wire path for TX and RX and 5V of D2</desc>
<path d="M19.9485 14.4986
L20.2818 14.4986
" />
<path d="M20.4247 15.0224
L19.9485 15.0224
" />
<path d="M19.9485 15.0224
L19.9485 14.0224
" />
<path d="M19.9485 14.0224
L20.4247 14.0224
" />
<path d="M20.7580 15.0224
L21.2818 14.3557
" />
<path d="M20.7580 14.3557
L21.2818 15.0224
" />
<path d="M21.5199 14.3557
L21.9009 14.3557
" />
<path d="M21.6628 14.0224
L21.6628 14.8795
" />
<path d="M21.6628 14.8795
L21.7104 14.9748
" />
<path d="M21.7104 14.9748
L21.8056 15.0224
" />
<path d="M21.8056 15.0224
L21.9009 15.0224
" />
<path d="M22.6152 14.9748
L22.5199 15.0224
" />
<path d="M22.5199 15.0224
L22.3294 15.0224
" />
<path d="M22.3294 15.0224
L22.2342 14.9748
" />
<path d="M22.2342 14.9748
L22.1866 14.8795
" />
<path d="M22.1866 14.8795
L22.1866 14.4986
" />
<path d="M22.1866 14.4986
L22.2342 14.4033
" />
<path d="M22.2342 14.4033
L22.3294 14.3557
" />
<path d="M22.3294 14.3557
L22.5199 14.3557
" />
<path d="M22.5199 14.3557
L22.6152 14.4033
" />
<path d="M22.6152 14.4033
L22.6628 14.4986
" />
<path d="M22.6628 14.4986
L22.6628 14.5938
" />
<path d="M22.6628 14.5938
L22.1866 14.6890
" />
<path d="M23.0914 15.0224
L23.0914 14.3557
" />
<path d="M23.0914 14.5462
L23.1390 14.4510
" />
<path d="M23.1390 14.4510
L23.1866 14.4033
" />
<path d="M23.1866 14.4033
L23.2818 14.3557
" />
<path d="M23.2818 14.3557
L23.3771 14.3557
" />
<path d="M23.7104 14.3557
L23.7104 15.0224
" />
<path d="M23.7104 14.4510
L23.7580 14.4033
" />
<path d="M23.7580 14.4033
L23.8533 14.3557
" />
<path d="M23.8533 14.3557
L23.9961 14.3557
" />
<path d="M23.9961 14.3557
L24.0914 14.4033
" />
<path d="M24.0914 14.4033
L24.1390 14.4986
" />
<path d="M24.1390 14.4986
L24.1390 15.0224
" />
<path d="M25.0437 15.0224
L25.0437 14.4986
" />
<path d="M25.0437 14.4986
L24.9961 14.4033
" />
<path d="M24.9961 14.4033
L24.9009 14.3557
" />
<path d="M24.9009 14.3557
L24.7104 14.3557
" />
<path d="M24.7104 14.3557
L24.6152 14.4033
" />
<path d="M25.0437 14.9748
L24.9485 15.0224
" />
<path d="M24.9485 15.0224
L24.7104 15.0224
" />
<path d="M24.7104 15.0224
L24.6152 14.9748
" />
<path d="M24.6152 14.9748
L24.5675 14.8795
" />
<path d="M24.5675 14.8795
L24.5675 14.7843
" />
<path d="M24.5675 14.7843
L24.6152 14.6890
" />
<path d="M24.6152 14.6890
L24.7104 14.6414
" />
<path d="M24.7104 14.6414
L24.9485 14.6414
" />
<path d="M24.9485 14.6414
L25.0437 14.5938
" />
<path d="M25.6628 15.0224
L25.5675 14.9748
" />
<path d="M25.5675 14.9748
L25.5199 14.8795
" />
<path d="M25.5199 14.8795
L25.5199 14.0224
" />
<path d="M26.5485 14.3557
L26.7390 15.0224
" />
<path d="M26.7390 15.0224
L26.9294 14.5462
" />
<path d="M26.9294 14.5462
L27.1199 15.0224
" />
<path d="M27.1199 15.0224
L27.3104 14.3557
" />
<path d="M27.6914 15.0224
L27.6914 14.3557
" />
<path d="M27.6914 14.0224
L27.6437 14.0700
" />
<path d="M27.6437 14.0700
L27.6914 14.1176
" />
<path d="M27.6914 14.1176
L27.7390 14.0700
" />
<path d="M27.7390 14.0700
L27.6914 14.0224
" />
<path d="M27.6914 14.0224
L27.6914 14.1176
" />
<path d="M28.1675 15.0224
L28.1675 14.3557
" />
<path d="M28.1675 14.5462
L28.2152 14.4510
" />
<path d="M28.2152 14.4510
L28.2628 14.4033
" />
<path d="M28.2628 14.4033
L28.3580 14.3557
" />
<path d="M28.3580 14.3557
L28.4533 14.3557
" />
<path d="M29.1675 14.9748
L29.0723 15.0224
" />
<path d="M29.0723 15.0224
L28.8818 15.0224
" />
<path d="M28.8818 15.0224
L28.7866 14.9748
" />
<path d="M28.7866 14.9748
L28.7390 14.8795
" />
<path d="M28.7390 14.8795
L28.7390 14.4986
" />
<path d="M28.7390 14.4986
L28.7866 14.4033
" />
<path d="M28.7866 14.4033
L28.8818 14.3557
" />
<path d="M28.8818 14.3557
L29.0723 14.3557
" />
<path d="M29.0723 14.3557
L29.1675 14.4033
" />
<path d="M29.1675 14.4033
L29.2152 14.4986
" />
<path d="M29.2152 14.4986
L29.2152 14.5938
" />
<path d="M29.2152 14.5938
L28.7390 14.6890
" />
<path d="M30.2437 14.3557
L30.2437 15.3557
" />
<path d="M30.2437 14.4033
L30.3390 14.3557
" />
<path d="M30.3390 14.3557
L30.5294 14.3557
" />
<path d="M30.5294 14.3557
L30.6247 14.4033
" />
<path d="M30.6247 14.4033
L30.6723 14.4510
" />
<path d="M30.6723 14.4510
L30.7199 14.5462
" />
<path d="M30.7199 14.5462
L30.7199 14.8319
" />
<path d="M30.7199 14.8319
L30.6723 14.9271
" />
<path d="M30.6723 14.9271
L30.6247 14.9748
" />
<path d="M30.6247 14.9748
L30.5294 15.0224
" />
<path d="M30.5294 15.0224
L30.3390 15.0224
" />
<path d="M30.3390 15.0224
L30.2437 14.9748
" />
<path d="M31.5771 15.0224
L31.5771 14.4986
" />
<path d="M31.5771 14.4986
L31.5294 14.4033
" />
<path d="M31.5294 14.4033
L31.4342 14.3557
" />
<path d="M31.4342 14.3557
L31.2437 14.3557
" />
<path d="M31.2437 14.3557
L31.1485 14.4033
" />
<path d="M31.5771 14.9748
L31.4818 15.0224
" />
<path d="M31.4818 15.0224
L31.2437 15.0224
" />
<path d="M31.2437 15.0224
L31.1485 14.9748
" />
<path d="M31.1485 14.9748
L31.1009 14.8795
" />
<path d="M31.1009 14.8795
L31.1009 14.7843
" />
<path d="M31.1009 14.7843
L31.1485 14.6890
" />
<path d="M31.1485 14.6890
L31.2437 14.6414
" />
<path d="M31.2437 14.6414
L31.4818 14.6414
" />
<path d="M31.4818 14.6414
L31.5771 14.5938
" />
<path d="M31.9104 14.3557
L32.2914 14.3557
" />
<path d="M32.0533 14.0224
L32.0533 14.8795
" />
<path d="M32.0533 14.8795
L32.1009 14.9748
" />
<path d="M32.1009 14.9748
L32.1961 15.0224
" />
<path d="M32.1961 15.0224
L32.2914 15.0224
" />
<path d="M32.6247 15.0224
L32.6247 14.0224
" />
<path d="M33.0533 15.0224
L33.0533 14.4986
" />
<path d="M33.0533 14.4986
L33.0056 14.4033
" />
<path d="M33.0056 14.4033
L32.9104 14.3557
" />
<path d="M32.9104 14.3557
L32.7675 14.3557
" />
<path d="M32.7675 14.3557
L32.6723 14.4033
" />
<path d="M32.6723 14.4033
L32.6247 14.4510
" />
<path d="M33.9866 14.3557
L34.3675 14.3557
" />
<path d="M34.1294 15.0224
L34.1294 14.1652
" />
<path d="M34.1294 14.1652
L34.1771 14.0700
" />
<path d="M34.1771 14.0700
L34.2723 14.0224
" />
<path d="M34.2723 14.0224
L34.3675 14.0224
" />
<path d="M34.8437 15.0224
L34.7485 14.9748
" />
<path d="M34.7485 14.9748
L34.7009 14.9271
" />
<path d="M34.7009 14.9271
L34.6533 14.8319
" />
<path d="M34.6533 14.8319
L34.6533 14.5462
" />
<path d="M34.6533 14.5462
L34.7009 14.4510
" />
<path d="M34.7009 14.4510
L34.7485 14.4033
" />
<path d="M34.7485 14.4033
L34.8437 14.3557
" />
<path d="M34.8437 14.3557
L34.9866 14.3557
" />
<path d="M34.9866 14.3557
L35.0818 14.4033
" />
<path d="M35.0818 14.4033
L35.1294 14.4510
" />
<path d="M35.1294 14.4510
L35.1771 14.5462
" />
<path d="M35.1771 14.5462
L35.1771 14.8319
" />
<path d="M35.1771 14.8319
L35.1294 14.9271
" />
<path d="M35.1294 14.9271
L35.0818 14.9748
" />
<path d="M35.0818 14.9748
L34.9866 15.0224
" />
<path d="M34.9866 15.0224
L34.8437 15.0224
" />
<path d="M35.6056 15.0224
L35.6056 14.3557
" />
<path d="M35.6056 14.5462
L35.6533 14.4510
" />
<path d="M35.6533 14.4510
L35.7009 14.4033
" />
<path d="M35.7009 14.4033
L35.7961 14.3557
" />
<path d="M35.7961 14.3557
L35.8914 14.3557
" />
<path d="M36.6818 14.0224
L37.2533 14.0224
" />
<path d="M36.9675 15.0224
L36.9675 14.0224
" />
<path d="M37.4914 14.0224
L38.1580 15.0224
" />
<path d="M38.1580 14.0224
L37.4914 15.0224
" />
<path d="M39.5675 15.0224
L39.5675 14.4986
" />
<path d="M39.5675 14.4986
L39.5199 14.4033
" />
<path d="M39.5199 14.4033
L39.4247 14.3557
" />
<path d="M39.4247 14.3557
L39.2342 14.3557
" />
<path d="M39.2342 14.3557
L39.1390 14.4033
" />
<path d="M39.5675 14.9748
L39.4723 15.0224
" />
<path d="M39.4723 15.0224
L39.2342 15.0224
" />
<path d="M39.2342 15.0224
L39.1390 14.9748
" />
<path d="M39.1390 14.9748
L39.0914 14.8795
" />
<path d="M39.0914 14.8795
L39.0914 14.7843
" />
<path d="M39.0914 14.7843
L39.1390 14.6890
" />
<path d="M39.1390 14.6890
L39.2342 14.6414
" />
<path d="M39.2342 14.6414
L39.4723 14.6414
" />
<path d="M39.4723 14.6414
L39.5675 14.5938
" />
<path d="M40.0437 14.3557
L40.0437 15.0224
" />
<path d="M40.0437 14.4510
L40.0914 14.4033
" />
<path d="M40.0914 14.4033
L40.1866 14.3557
" />
<path d="M40.1866 14.3557
L40.3295 14.3557
" />
<path d="M40.3295 14.3557
L40.4247 14.4033
" />
<path d="M40.4247 14.4033
L40.4723 14.4986
" />
<path d="M40.4723 14.4986
L40.4723 15.0224
" />
<path d="M41.3771 15.0224
L41.3771 14.0224
" />
<path d="M41.3771 14.9748
L41.2818 15.0224
" />
<path d="M41.2818 15.0224
L41.0914 15.0224
" />
<path d="M41.0914 15.0224
L40.9961 14.9748
" />
<path d="M40.9961 14.9748
L40.9485 14.9271
" />
<path d="M40.9485 14.9271
L40.9009 14.8319
" />
<path d="M40.9009 14.8319
L40.9009 14.5462
" />
<path d="M40.9009 14.5462
L40.9485 14.4510
" />
<path d="M40.9485 14.4510
L40.9961 14.4033
" />
<path d="M40.9961 14.4033
L41.0914 14.3557
" />
<path d="M41.0914 14.3557
L41.2818 14.3557
" />
<path d="M41.2818 14.3557
L41.3771 14.4033
" />
<path d="M43.0247 15.0224
L42.6914 14.5462
" />
<path d="M42.4533 15.0224
L42.4533 14.0224
" />
<path d="M42.4533 14.0224
L42.8342 14.0224
" />
<path d="M42.8342 14.0224
L42.9295 14.0700
" />
<path d="M42.9295 14.0700
L42.9771 14.1176
" />
<path d="M42.9771 14.1176
L43.0247 14.2129
" />
<path d="M43.0247 14.2129
L43.0247 14.3557
" />
<path d="M43.0247 14.3557
L42.9771 14.4510
" />
<path d="M42.9771 14.4510
L42.9295 14.4986
" />
<path d="M42.9295 14.4986
L42.8342 14.5462
" />
<path d="M42.8342 14.5462
L42.4533 14.5462
" />
<path d="M43.3580 14.0224
L44.0247 15.0224
" />
<path d="M44.0247 14.0224
L43.3580 15.0224
" />
<path d="M45.4342 15.0224
L45.4342 14.4986
" />
<path d="M45.4342 14.4986
L45.3866 14.4033
" />
<path d="M45.3866 14.4033
L45.2914 14.3557
" />
<path d="M45.2914 14.3557
L45.1009 14.3557
" />
<path d="M45.1009 14.3557
L45.0056 14.4033
" />
<path d="M45.4342 14.9748
L45.3390 15.0224
" />
<path d="M45.3390 15.0224
L45.1009 15.0224
" />
<path d="M45.1009 15.0224
L45.0056 14.9748
" />
<path d="M45.0056 14.9748
L44.9580 14.8795
" />
<path d="M44.9580 14.8795
L44.9580 14.7843
" />
<path d="M44.9580 14.7843
L45.0056 14.6890
" />
<path d="M45.0056 14.6890
L45.1009 14.6414
" />
<path d="M45.1009 14.6414
L45.3390 14.6414
" />
<path d="M45.3390 14.6414
L45.4342 14.5938
" />
<path d="M45.9104 14.3557
L45.9104 15.0224
" />
<path d="M45.9104 14.4510
L45.9580 14.4033
" />
<path d="M45.9580 14.4033
L46.0533 14.3557
" />
<path d="M46.0533 14.3557
L46.1961 14.3557
" />
<path d="M46.1961 14.3557
L46.2914 14.4033
" />
<path d="M46.2914 14.4033
L46.3390 14.4986
" />
<path d="M46.3390 14.4986
L46.3390 15.0224
" />
<path d="M47.2437 15.0224
L47.2437 14.0224
" />
<path d="M47.2437 14.9748
L47.1485 15.0224
" />
<path d="M47.1485 15.0224
L46.9580 15.0224
" />
<path d="M46.9580 15.0224
L46.8628 14.9748
" />
<path d="M46.8628 14.9748
L46.8152 14.9271
" />
<path d="M46.8152 14.9271
L46.7675 14.8319
" />
<path d="M46.7675 14.8319
L46.7675 14.5462
" />
<path d="M46.7675 14.5462
L46.8152 14.4510
" />
<path d="M46.8152 14.4510
L46.8628 14.4033
" />
<path d="M46.8628 14.4033
L46.9580 14.3557
" />
<path d="M46.9580 14.3557
L47.1485 14.3557
" />
<path d="M47.1485 14.3557
L47.2437 14.4033
" />
<path d="M48.7961 14.0224
L48.3199 14.0224
" />
<path d="M48.3199 14.0224
L48.2723 14.4986
" />
<path d="M48.2723 14.4986
L48.3199 14.4510
" />
<path d="M48.3199 14.4510
L48.4152 14.4033
" />
<path d="M48.4152 14.4033
L48.6533 14.4033
" />
<path d="M48.6533 14.4033
L48.7485 14.4510
" />
<path d="M48.7485 14.4510
L48.7961 14.4986
" />
<path d="M48.7961 14.4986
L48.8437 14.5938
" />
<path d="M48.8437 14.5938
L48.8437 14.8319
" />
<path d="M48.8437 14.8319
L48.7961 14.9271
" />
<path d="M48.7961 14.9271
L48.7485 14.9748
" />
<path d="M48.7485 14.9748
L48.6533 15.0224
" />
<path d="M48.6533 15.0224
L48.4152 15.0224
" />
<path d="M48.4152 15.0224
L48.3199 14.9748
" />
<path d="M48.3199 14.9748
L48.2723 14.9271
" />
<path d="M49.1295 14.0224
L49.4628 15.0224
" />
<path d="M49.4628 15.0224
L49.7961 14.0224
" />
<path d="M50.8723 15.0224
L50.7771 14.9748
" />
<path d="M50.7771 14.9748
L50.7295 14.9271
" />
<path d="M50.7295 14.9271
L50.6818 14.8319
" />
<path d="M50.6818 14.8319
L50.6818 14.5462
" />
<path d="M50.6818 14.5462
L50.7295 14.4510
" />
<path d="M50.7295 14.4510
L50.7771 14.4033
" />
<path d="M50.7771 14.4033
L50.8723 14.3557
" />
<path d="M50.8723 14.3557
L51.0152 14.3557
" />
<path d="M51.0152 14.3557
L51.1104 14.4033
" />
<path d="M51.1104 14.4033
L51.1580 14.4510
" />
<path d="M51.1580 14.4510
L51.2056 14.5462
" />
<path d="M51.2056 14.5462
L51.2056 14.8319
" />
<path d="M51.2056 14.8319
L51.1580 14.9271
" />
<path d="M51.1580 14.9271
L51.1104 14.9748
" />
<path d="M51.1104 14.9748
L51.0152 15.0224
" />
<path d="M51.0152 15.0224
L50.8723 15.0224
" />
<path d="M51.4914 14.3557
L51.8723 14.3557
" />
<path d="M51.6342 15.0224
L51.6342 14.1652
" />
<path d="M51.6342 14.1652
L51.6818 14.0700
" />
<path d="M51.6818 14.0700
L51.7771 14.0224
" />
<path d="M51.7771 14.0224
L51.8723 14.0224
" />
<path d="M52.8056 15.0224
L52.8056 14.0224
" />
<path d="M52.8056 14.0224
L53.0437 14.0224
" />
<path d="M53.0437 14.0224
L53.1866 14.0700
" />
<path d="M53.1866 14.0700
L53.2818 14.1652
" />
<path d="M53.2818 14.1652
L53.3295 14.2605
" />
<path d="M53.3295 14.2605
L53.3771 14.4510
" />
<path d="M53.3771 14.4510
L53.3771 14.5938
" />
<path d="M53.3771 14.5938
L53.3295 14.7843
" />
<path d="M53.3295 14.7843
L53.2818 14.8795
" />
<path d="M53.2818 14.8795
L53.1866 14.9748
" />
<path d="M53.1866 14.9748
L53.0437 15.0224
" />
<path d="M53.0437 15.0224
L52.8056 15.0224
" />
<path d="M53.7580 14.1176
L53.8056 14.0700
" />
<path d="M53.8056 14.0700
L53.9009 14.0224
" />
<path d="M53.9009 14.0224
L54.1390 14.0224
" />
<path d="M54.1390 14.0224
L54.2342 14.0700
" />
<path d="M54.2342 14.0700
L54.2818 14.1176
" />
<path d="M54.2818 14.1176
L54.3295 14.2129
" />
<path d="M54.3295 14.2129
L54.3295 14.3081
" />
<path d="M54.3295 14.3081
L54.2818 14.4510
" />
<path d="M54.2818 14.4510
L53.7104 15.0224
" />
<path d="M53.7104 15.0224
L54.3295 15.0224
" />
</g></g>
<g style="fill:#000000; fill-opacity:0.0; 
stroke:#000000; stroke-width:0.2000; stroke-opacity:1; 
stroke-linecap:round; stroke-linejoin:round;">
<path d="M20.1736 82.3132
L53.1936 82.3132
" />
<path d="M20.1736 17.2384
L53.1936 17.2384
" />
<path d="M20.1736 17.2384
L20.1736 82.3132
" />
<path d="M53.1936 17.2384
L53.1936 82.3132
" />
</g>
<g style="fill:#000000; fill-opacity:0.0; 
stroke:#000000; stroke-width:0.1500; stroke-opacity:1; 
stroke-linecap:round; stroke-linejoin:round;">
<text x="45.6184" y="20.6744"
textLength="1.8893" font-size="1.3333" lengthAdjust="spacingAndGlyphs"
text-anchor="middle" opacity="0">J4</text>
<g class="stroked-text"><desc>J4</desc>
<path d="M45.2851 19.5418
L45.2851 20.2561
" />
<path d="M45.2851 20.2561
L45.2374 20.3989
" />
<path d="M45.2374 20.3989
L45.1422 20.4942
" />
<path d="M45.1422 20.4942
L44.9994 20.5418
" />
<path d="M44.9994 20.5418
L44.9041 20.5418
" />
<path d="M46.1898 19.8751
L46.1898 20.5418
" />
<path d="M45.9517 19.4942
L45.7136 20.2084
" />
<path d="M45.7136 20.2084
L46.3327 20.2084
" />
</g><text x="50.9016" y="20.6744"
textLength="2.8417" font-size="1.3333" lengthAdjust="spacingAndGlyphs"
text-anchor="middle" opacity="0">J11</text>
<g class="stroked-text"><desc>J11</desc>
<path d="M50.0921 19.5418
L50.0921 20.2561
" />
<path d="M50.0921 20.2561
L50.0445 20.3989
" />
<path d="M50.0445 20.3989
L49.9492 20.4942
" />
<path d="M49.9492 20.4942
L49.8064 20.5418
" />
<path d="M49.8064 20.5418
L49.7111 20.5418
" />
<path d="M51.0921 20.5418
L50.5206 20.5418
" />
<path d="M50.8064 20.5418
L50.8064 19.5418
" />
<path d="M50.8064 19.5418
L50.7111 19.6846
" />
<path d="M50.7111 19.6846
L50.6159 19.7799
" />
<path d="M50.6159 19.7799
L50.5206 19.8275
" />
<path d="M52.0445 20.5418
L51.4730 20.5418
" />
<path d="M51.7587 20.5418
L51.7587 19.5418
" />
<path d="M51.7587 19.5418
L51.6635 19.6846
" />
<path d="M51.6635 19.6846
L51.5683 19.7799
" />
<path d="M51.5683 19.7799
L51.4730 19.8275
" />
</g><text x="48.2600" y="20.6744"
textLength="2.8417" font-size="1.3333" lengthAdjust="spacingAndGlyphs"
text-anchor="middle" opacity="0">J10</text>
<g class="stroked-text"><desc>J10</desc>
<path d="M47.4505 19.5418
L47.4505 20.2561
" />
<path d="M47.4505 20.2561
L47.4029 20.3989
" />
<path d="M47.4029 20.3989
L47.3076 20.4942
" />
<path d="M47.3076 20.4942
L47.1648 20.5418
" />
<path d="M47.1648 20.5418
L47.0695 20.5418
" />
<path d="M48.4505 20.5418
L47.8790 20.5418
" />
<path d="M48.1648 20.5418
L48.1648 19.5418
" />
<path d="M48.1648 19.5418
L48.0695 19.6846
" />
<path d="M48.0695 19.6846
L47.9743 19.7799
" />
<path d="M47.9743 19.7799
L47.8790 19.8275
" />
<path d="M49.0695 19.5418
L49.1648 19.5418
" />
<path d="M49.1648 19.5418
L49.2600 19.5894
" />
<path d="M49.2600 19.5894
L49.3076 19.6370
" />
<path d="M49.3076 19.6370
L49.3552 19.7323
" />
<path d="M49.3552 19.7323
L49.4029 19.9227
" />
<path d="M49.4029 19.9227
L49.4029 20.1608
" />
<path d="M49.4029 20.1608
L49.3552 20.3513
" />
<path d="M49.3552 20.3513
L49.3076 20.4465
" />
<path d="M49.3076 20.4465
L49.2600 20.4942
" />
<path d="M49.2600 20.4942
L49.1648 20.5418
" />
<path d="M49.1648 20.5418
L49.0695 20.5418
" />
<path d="M49.0695 20.5418
L48.9743 20.4942
" />
<path d="M48.9743 20.4942
L48.9267 20.4465
" />
<path d="M48.9267 20.4465
L48.8790 20.3513
" />
<path d="M48.8790 20.3513
L48.8314 20.1608
" />
<path d="M48.8314 20.1608
L48.8314 19.9227
" />
<path d="M48.8314 19.9227
L48.8790 19.7323
" />
<path d="M48.8790 19.7323
L48.9267 19.6370
" />
<path d="M48.9267 19.6370
L48.9743 19.5894
" />
<path d="M48.9743 19.5894
L49.0695 19.5418
" />
</g><text x="26.5236" y="22.5100"
textLength="2.1274" font-size="1.3333" lengthAdjust="spacingAndGlyphs"
text-anchor="middle" opacity="0">C1</text>
<g class="stroked-text"><desc>C1</desc>
<path d="M26.3569 22.2821
L26.3093 22.3298
" />
<path d="M26.3093 22.3298
L26.1665 22.3774
" />
<path d="M26.1665 22.3774
L26.0712 22.3774
" />
<path d="M26.0712 22.3774
L25.9284 22.3298
" />
<path d="M25.9284 22.3298
L25.8331 22.2345
" />
<path d="M25.8331 22.2345
L25.7855 22.1393
" />
<path d="M25.7855 22.1393
L25.7379 21.9488
" />
<path d="M25.7379 21.9488
L25.7379 21.8060
" />
<path d="M25.7379 21.8060
L25.7855 21.6155
" />
<path d="M25.7855 21.6155
L25.8331 21.5202
" />
<path d="M25.8331 21.5202
L25.9284 21.4250
" />
<path d="M25.9284 21.4250
L26.0712 21.3774
" />
<path d="M26.0712 21.3774
L26.1665 21.3774
" />
<path d="M26.1665 21.3774
L26.3093 21.4250
" />
<path d="M26.3093 21.4250
L26.3569 21.4726
" />
<path d="M27.3093 22.3774
L26.7379 22.3774
" />
<path d="M27.0236 22.3774
L27.0236 21.3774
" />
<path d="M27.0236 21.3774
L26.9284 21.5202
" />
<path d="M26.9284 21.5202
L26.8331 21.6155
" />
<path d="M26.8331 21.6155
L26.7379 21.6631
" />
</g><text x="26.5236" y="24.8468"
textLength="2.1274" font-size="1.3333" lengthAdjust="spacingAndGlyphs"
text-anchor="middle" opacity="0">C2</text>
<g class="stroked-text"><desc>C2</desc>
<path d="M26.3569 24.6189
L26.3093 24.6666
" />
<path d="M26.3093 24.6666
L26.1665 24.7142
" />
<path d="M26.1665 24.7142
L26.0712 24.7142
" />
<path d="M26.0712 24.7142
L25.9284 24.6666
" />
<path d="M25.9284 24.6666
L25.8331 24.5713
" />
<path d="M25.8331 24.5713
L25.7855 24.4761
" />
<path d="M25.7855 24.4761
L25.7379 24.2856
" />
<path d="M25.7379 24.2856
L25.7379 24.1428
" />
<path d="M25.7379 24.1428
L25.7855 23.9523
" />
<path d="M25.7855 23.9523
L25.8331 23.8570
" />
<path d="M25.8331 23.8570
L25.9284 23.7618
" />
<path d="M25.9284 23.7618
L26.0712 23.7142
" />
<path d="M26.0712 23.7142
L26.1665 23.7142
" />
<path d="M26.1665 23.7142
L26.3093 23.7618
" />
<path d="M26.3093 23.7618
L26.3569 23.8094
" />
<path d="M26.7379 23.8094
L26.7855 23.7618
" />
<path d="M26.7855 23.7618
L26.8807 23.7142
" />
<path d="M26.8807 23.7142
L27.1188 23.7142
" />
<path d="M27.1188 23.7142
L27.2141 23.7618
" />
<path d="M27.2141 23.7618
L27.2617 23.8094
" />
<path d="M27.2617 23.8094
L27.3093 23.9047
" />
<path d="M27.3093 23.9047
L27.3093 23.9999
" />
<path d="M27.3093 23.9999
L27.2617 24.1428
" />
<path d="M27.2617 24.1428
L26.6903 24.7142
" />
<path d="M26.6903 24.7142
L27.3093 24.7142
" />
</g><text x="37.2932" y="74.7940"
textLength="2.1750" font-size="1.3333" lengthAdjust="spacingAndGlyphs"
text-anchor="middle" opacity="0">U4</text>
<g class="stroked-text"><desc>U4</desc>
<path d="M36.5313 73.6614
L36.5313 74.4709
" />
<path d="M36.5313 74.4709
L36.5789 74.5661
" />
<path d="M36.5789 74.5661
L36.6265 74.6138
" />
<path d="M36.6265 74.6138
L36.7218 74.6614
" />
<path d="M36.7218 74.6614
L36.9122 74.6614
" />
<path d="M36.9122 74.6614
L37.0075 74.6138
" />
<path d="M37.0075 74.6138
L37.0551 74.5661
" />
<path d="M37.0551 74.5661
L37.1027 74.4709
" />
<path d="M37.1027 74.4709
L37.1027 73.6614
" />
<path d="M38.0075 73.9947
L38.0075 74.6614
" />
<path d="M37.7694 73.6138
L37.5313 74.3280
" />
<path d="M37.5313 74.3280
L38.1503 74.3280
" />
</g><text x="25.4060" y="33.8488"
textLength="1.8893" font-size="1.3333" lengthAdjust="spacingAndGlyphs"
text-anchor="middle" opacity="0">J2</text>
<g class="stroked-text"><desc>J2</desc>
<path d="M25.0727 32.7162
L25.0727 33.4305
" />
<path d="M25.0727 33.4305
L25.0250 33.5733
" />
<path d="M25.0250 33.5733
L24.9298 33.6686
" />
<path d="M24.9298 33.6686
L24.7870 33.7162
" />
<path d="M24.7870 33.7162
L24.6917 33.7162
" />
<path d="M25.5012 32.8114
L25.5489 32.7638
" />
<path d="M25.5489 32.7638
L25.6441 32.7162
" />
<path d="M25.6441 32.7162
L25.8822 32.7162
" />
<path d="M25.8822 32.7162
L25.9774 32.7638
" />
<path d="M25.9774 32.7638
L26.0250 32.8114
" />
<path d="M26.0250 32.8114
L26.0727 32.9067
" />
<path d="M26.0727 32.9067
L26.0727 33.0019
" />
<path d="M26.0727 33.0019
L26.0250 33.1448
" />
<path d="M26.0250 33.1448
L25.4536 33.7162
" />
<path d="M25.4536 33.7162
L26.0727 33.7162
" />
</g><text x="47.5040" y="63.3096"
textLength="2.1274" font-size="1.3333" lengthAdjust="spacingAndGlyphs"
text-anchor="middle" opacity="0">C5</text>
<g class="stroked-text"><desc>C5</desc>
<path d="M47.3373 63.0817
L47.2897 63.1294
" />
<path d="M47.2897 63.1294
L47.1469 63.1770
" />
<path d="M47.1469 63.1770
L47.0516 63.1770
" />
<path d="M47.0516 63.1770
L46.9088 63.1294
" />
<path d="M46.9088 63.1294
L46.8135 63.0341
" />
<path d="M46.8135 63.0341
L46.7659 62.9389
" />
<path d="M46.7659 62.9389
L46.7183 62.7484
" />
<path d="M46.7183 62.7484
L46.7183 62.6056
" />
<path d="M46.7183 62.6056
L46.7659 62.4151
" />
<path d="M46.7659 62.4151
L46.8135 62.3198
" />
<path d="M46.8135 62.3198
L46.9088 62.2246
" />
<path d="M46.9088 62.2246
L47.0516 62.1770
" />
<path d="M47.0516 62.1770
L47.1469 62.1770
" />
<path d="M47.1469 62.1770
L47.2897 62.2246
" />
<path d="M47.2897 62.2246
L47.3373 62.2722
" />
<path d="M48.2421 62.1770
L47.7659 62.1770
" />
<path d="M47.7659 62.1770
L47.7183 62.6532
" />
<path d="M47.7183 62.6532
L47.7659 62.6056
" />
<path d="M47.7659 62.6056
L47.8611 62.5579
" />
<path d="M47.8611 62.5579
L48.0992 62.5579
" />
<path d="M48.0992 62.5579
L48.1945 62.6056
" />
<path d="M48.1945 62.6056
L48.2421 62.6532
" />
<path d="M48.2421 62.6532
L48.2897 62.7484
" />
<path d="M48.2897 62.7484
L48.2897 62.9865
" />
<path d="M48.2897 62.9865
L48.2421 63.0817
" />
<path d="M48.2421 63.0817
L48.1945 63.1294
" />
<path d="M48.1945 63.1294
L48.0992 63.1770
" />
<path d="M48.0992 63.1770
L47.8611 63.1770
" />
<path d="M47.8611 63.1770
L47.7659 63.1294
" />
<path d="M47.7659 63.1294
L47.7183 63.0817
" />
</g><g transform="rotate(-90.000000 29.8058 27.3576)">
<text x="29.8058" y="27.8576"
textLength="1.9845" font-size="1.3333" lengthAdjust="spacingAndGlyphs"
text-anchor="middle" opacity="0">Y1</text>
</g>
<g class="stroked-text"><desc>Y1</desc>
<path d="M29.6970 27.8338
L30.1732 27.8338
" />
<path d="M29.1732 28.1671
L29.6970 27.8338
" />
<path d="M29.6970 27.8338
L29.1732 27.5005
" />
<path d="M30.1732 26.6433
L30.1732 27.2147
" />
<path d="M30.1732 26.9290
L29.1732 26.9290
" />
<path d="M29.1732 26.9290
L29.3160 27.0243
" />
<path d="M29.3160 27.0243
L29.4113 27.1195
" />
<path d="M29.4113 27.1195
L29.4589 27.2147
" />
</g><g transform="rotate(-90.000000 30.0252 63.3140)">
<text x="30.0252" y="63.8140"
textLength="2.1274" font-size="1.3333" lengthAdjust="spacingAndGlyphs"
text-anchor="middle" opacity="0">C4</text>
</g>
<g class="stroked-text"><desc>C4</desc>
<path d="M30.2973 63.4807
L30.3450 63.5283
" />
<path d="M30.3450 63.5283
L30.3926 63.6711
" />
<path d="M30.3926 63.6711
L30.3926 63.7664
" />
<path d="M30.3926 63.7664
L30.3450 63.9092
" />
<path d="M30.3450 63.9092
L30.2497 64.0045
" />
<path d="M30.2497 64.0045
L30.1545 64.0521
" />
<path d="M30.1545 64.0521
L29.9640 64.0997
" />
<path d="M29.9640 64.0997
L29.8212 64.0997
" />
<path d="M29.8212 64.0997
L29.6307 64.0521
" />
<path d="M29.6307 64.0521
L29.5354 64.0045
" />
<path d="M29.5354 64.0045
L29.4402 63.9092
" />
<path d="M29.4402 63.9092
L29.3926 63.7664
" />
<path d="M29.3926 63.7664
L29.3926 63.6711
" />
<path d="M29.3926 63.6711
L29.4402 63.5283
" />
<path d="M29.4402 63.5283
L29.4878 63.4807
" />
<path d="M29.7259 62.6235
L30.3926 62.6235
" />
<path d="M29.3450 62.8616
L30.0592 63.0997
" />
<path d="M30.0592 63.0997
L30.0592 62.4807
" />
</g><text x="44.6592" y="74.4312"
textLength="2.1274" font-size="1.3333" lengthAdjust="spacingAndGlyphs"
text-anchor="middle" opacity="0">D2</text>
<g class="stroked-text"><desc>D2</desc>
<path d="M43.9211 74.2986
L43.9211 73.2986
" />
<path d="M43.9211 73.2986
L44.1592 73.2986
" />
<path d="M44.1592 73.2986
L44.3021 73.3462
" />
<path d="M44.3021 73.3462
L44.3973 73.4414
" />
<path d="M44.3973 73.4414
L44.4449 73.5367
" />
<path d="M44.4449 73.5367
L44.4925 73.7272
" />
<path d="M44.4925 73.7272
L44.4925 73.8700
" />
<path d="M44.4925 73.8700
L44.4449 74.0605
" />
<path d="M44.4449 74.0605
L44.3973 74.1557
" />
<path d="M44.3973 74.1557
L44.3021 74.2510
" />
<path d="M44.3021 74.2510
L44.1592 74.2986
" />
<path d="M44.1592 74.2986
L43.9211 74.2986
" />
<path d="M44.8735 73.3938
L44.9211 73.3462
" />
<path d="M44.9211 73.3462
L45.0163 73.2986
" />
<path d="M45.0163 73.2986
L45.2544 73.2986
" />
<path d="M45.2544 73.2986
L45.3497 73.3462
" />
<path d="M45.3497 73.3462
L45.3973 73.3938
" />
<path d="M45.3973 73.3938
L45.4449 73.4891
" />
<path d="M45.4449 73.4891
L45.4449 73.5843
" />
<path d="M45.4449 73.5843
L45.3973 73.7272
" />
<path d="M45.3973 73.7272
L44.8259 74.2986
" />
<path d="M44.8259 74.2986
L45.4449 74.2986
" />
</g><text x="44.6432" y="77.1500"
textLength="2.1274" font-size="1.3333" lengthAdjust="spacingAndGlyphs"
text-anchor="middle" opacity="0">D3</text>
<g class="stroked-text"><desc>D3</desc>
<path d="M43.9051 77.0174
L43.9051 76.0174
" />
<path d="M43.9051 76.0174
L44.1432 76.0174
" />
<path d="M44.1432 76.0174
L44.2861 76.0650
" />
<path d="M44.2861 76.0650
L44.3813 76.1602
" />
<path d="M44.3813 76.1602
L44.4289 76.2555
" />
<path d="M44.4289 76.2555
L44.4765 76.4460
" />
<path d="M44.4765 76.4460
L44.4765 76.5888
" />
<path d="M44.4765 76.5888
L44.4289 76.7793
" />
<path d="M44.4289 76.7793
L44.3813 76.8745
" />
<path d="M44.3813 76.8745
L44.2861 76.9698
" />
<path d="M44.2861 76.9698
L44.1432 77.0174
" />
<path d="M44.1432 77.0174
L43.9051 77.0174
" />
<path d="M44.8099 76.0174
L45.4289 76.0174
" />
<path d="M45.4289 76.0174
L45.0956 76.3983
" />
<path d="M45.0956 76.3983
L45.2384 76.3983
" />
<path d="M45.2384 76.3983
L45.3337 76.4460
" />
<path d="M45.3337 76.4460
L45.3813 76.4936
" />
<path d="M45.3813 76.4936
L45.4289 76.5888
" />
<path d="M45.4289 76.5888
L45.4289 76.8269
" />
<path d="M45.4289 76.8269
L45.3813 76.9221
" />
<path d="M45.3813 76.9221
L45.3337 76.9698
" />
<path d="M45.3337 76.9698
L45.2384 77.0174
" />
<path d="M45.2384 77.0174
L44.9527 77.0174
" />
<path d="M44.9527 77.0174
L44.8575 76.9698
" />
<path d="M44.8575 76.9698
L44.8099 76.9221
" />
</g><text x="39.3760" y="55.9332"
textLength="1.8893" font-size="1.3333" lengthAdjust="spacingAndGlyphs"
text-anchor="middle" opacity="0">J5</text>
<g class="stroked-text"><desc>J5</desc>
<path d="M39.0427 54.8006
L39.0427 55.5149
" />
<path d="M39.0427 55.5149
L38.9950 55.6577
" />
<path d="M38.9950 55.6577
L38.8998 55.7530
" />
<path d="M38.8998 55.7530
L38.7570 55.8006
" />
<path d="M38.7570 55.8006
L38.6617 55.8006
" />
<path d="M39.9950 54.8006
L39.5189 54.8006
" />
<path d="M39.5189 54.8006
L39.4712 55.2768
" />
<path d="M39.4712 55.2768
L39.5189 55.2292
" />
<path d="M39.5189 55.2292
L39.6141 55.1815
" />
<path d="M39.6141 55.1815
L39.8522 55.1815
" />
<path d="M39.8522 55.1815
L39.9474 55.2292
" />
<path d="M39.9474 55.2292
L39.9950 55.2768
" />
<path d="M39.9950 55.2768
L40.0427 55.3720
" />
<path d="M40.0427 55.3720
L40.0427 55.6101
" />
<path d="M40.0427 55.6101
L39.9950 55.7053
" />
<path d="M39.9950 55.7053
L39.9474 55.7530
" />
<path d="M39.9474 55.7530
L39.8522 55.8006
" />
<path d="M39.8522 55.8006
L39.6141 55.8006
" />
<path d="M39.6141 55.8006
L39.5189 55.7530
" />
<path d="M39.5189 55.7530
L39.4712 55.7053
" />
</g><text x="47.5040" y="57.3080"
textLength="2.1274" font-size="1.3333" lengthAdjust="spacingAndGlyphs"
text-anchor="middle" opacity="0">C6</text>
<g class="stroked-text"><desc>C6</desc>
<path d="M47.3373 57.0801
L47.2897 57.1278
" />
<path d="M47.2897 57.1278
L47.1469 57.1754
" />
<path d="M47.1469 57.1754
L47.0516 57.1754
" />
<path d="M47.0516 57.1754
L46.9088 57.1278
" />
<path d="M46.9088 57.1278
L46.8135 57.0325
" />
<path d="M46.8135 57.0325
L46.7659 56.9373
" />
<path d="M46.7659 56.9373
L46.7183 56.7468
" />
<path d="M46.7183 56.7468
L46.7183 56.6040
" />
<path d="M46.7183 56.6040
L46.7659 56.4135
" />
<path d="M46.7659 56.4135
L46.8135 56.3182
" />
<path d="M46.8135 56.3182
L46.9088 56.2230
" />
<path d="M46.9088 56.2230
L47.0516 56.1754
" />
<path d="M47.0516 56.1754
L47.1469 56.1754
" />
<path d="M47.1469 56.1754
L47.2897 56.2230
" />
<path d="M47.2897 56.2230
L47.3373 56.2706
" />
<path d="M48.1945 56.1754
L48.0040 56.1754
" />
<path d="M48.0040 56.1754
L47.9088 56.2230
" />
<path d="M47.9088 56.2230
L47.8611 56.2706
" />
<path d="M47.8611 56.2706
L47.7659 56.4135
" />
<path d="M47.7659 56.4135
L47.7183 56.6040
" />
<path d="M47.7183 56.6040
L47.7183 56.9849
" />
<path d="M47.7183 56.9849
L47.7659 57.0801
" />
<path d="M47.7659 57.0801
L47.8135 57.1278
" />
<path d="M47.8135 57.1278
L47.9088 57.1754
" />
<path d="M47.9088 57.1754
L48.0992 57.1754
" />
<path d="M48.0992 57.1754
L48.1945 57.1278
" />
<path d="M48.1945 57.1278
L48.2421 57.0801
" />
<path d="M48.2421 57.0801
L48.2897 56.9849
" />
<path d="M48.2897 56.9849
L48.2897 56.7468
" />
<path d="M48.2897 56.7468
L48.2421 56.6516
" />
<path d="M48.2421 56.6516
L48.1945 56.6040
" />
<path d="M48.1945 56.6040
L48.0992 56.5563
" />
<path d="M48.0992 56.5563
L47.9088 56.5563
" />
<path d="M47.9088 56.5563
L47.8135 56.6040
" />
<path d="M47.8135 56.6040
L47.7659 56.6516
" />
<path d="M47.7659 56.6516
L47.7183 56.7468
" />
</g><text x="48.7232" y="74.4820"
textLength="2.1274" font-size="1.3333" lengthAdjust="spacingAndGlyphs"
text-anchor="middle" opacity="0">R3</text>
<g class="stroked-text"><desc>R3</desc>
<path d="M48.5565 74.3494
L48.2232 73.8732
" />
<path d="M47.9851 74.3494
L47.9851 73.3494
" />
<path d="M47.9851 73.3494
L48.3661 73.3494
" />
<path d="M48.3661 73.3494
L48.4613 73.3970
" />
<path d="M48.4613 73.3970
L48.5089 73.4446
" />
<path d="M48.5089 73.4446
L48.5565 73.5399
" />
<path d="M48.5565 73.5399
L48.5565 73.6827
" />
<path d="M48.5565 73.6827
L48.5089 73.7780
" />
<path d="M48.5089 73.7780
L48.4613 73.8256
" />
<path d="M48.4613 73.8256
L48.3661 73.8732
" />
<path d="M48.3661 73.8732
L47.9851 73.8732
" />
<path d="M48.8899 73.3494
L49.5089 73.3494
" />
<path d="M49.5089 73.3494
L49.1756 73.7303
" />
<path d="M49.1756 73.7303
L49.3184 73.7303
" />
<path d="M49.3184 73.7303
L49.4137 73.7780
" />
<path d="M49.4137 73.7780
L49.4613 73.8256
" />
<path d="M49.4613 73.8256
L49.5089 73.9208
" />
<path d="M49.5089 73.9208
L49.5089 74.1589
" />
<path d="M49.5089 74.1589
L49.4613 74.2541
" />
<path d="M49.4613 74.2541
L49.4137 74.3018
" />
<path d="M49.4137 74.3018
L49.3184 74.3494
" />
<path d="M49.3184 74.3494
L49.0327 74.3494
" />
<path d="M49.0327 74.3494
L48.9375 74.3018
" />
<path d="M48.9375 74.3018
L48.8899 74.2541
" />
</g><text x="25.4060" y="63.8176"
textLength="3.0798" font-size="1.3333" lengthAdjust="spacingAndGlyphs"
text-anchor="middle" opacity="0">C10</text>
<g class="stroked-text"><desc>C10</desc>
<path d="M24.7631 63.5897
L24.7155 63.6374
" />
<path d="M24.7155 63.6374
L24.5727 63.6850
" />
<path d="M24.5727 63.6850
L24.4774 63.6850
" />
<path d="M24.4774 63.6850
L24.3346 63.6374
" />
<path d="M24.3346 63.6374
L24.2393 63.5421
" />
<path d="M24.2393 63.5421
L24.1917 63.4469
" />
<path d="M24.1917 63.4469
L24.1441 63.2564
" />
<path d="M24.1441 63.2564
L24.1441 63.1136
" />
<path d="M24.1441 63.1136
L24.1917 62.9231
" />
<path d="M24.1917 62.9231
L24.2393 62.8278
" />
<path d="M24.2393 62.8278
L24.3346 62.7326
" />
<path d="M24.3346 62.7326
L24.4774 62.6850
" />
<path d="M24.4774 62.6850
L24.5727 62.6850
" />
<path d="M24.5727 62.6850
L24.7155 62.7326
" />
<path d="M24.7155 62.7326
L24.7631 62.7802
" />
<path d="M25.7155 63.6850
L25.1441 63.6850
" />
<path d="M25.4298 63.6850
L25.4298 62.6850
" />
<path d="M25.4298 62.6850
L25.3346 62.8278
" />
<path d="M25.3346 62.8278
L25.2393 62.9231
" />
<path d="M25.2393 62.9231
L25.1441 62.9707
" />
<path d="M26.3346 62.6850
L26.4298 62.6850
" />
<path d="M26.4298 62.6850
L26.5250 62.7326
" />
<path d="M26.5250 62.7326
L26.5727 62.7802
" />
<path d="M26.5727 62.7802
L26.6203 62.8755
" />
<path d="M26.6203 62.8755
L26.6679 63.0659
" />
<path d="M26.6679 63.0659
L26.6679 63.3040
" />
<path d="M26.6679 63.3040
L26.6203 63.4945
" />
<path d="M26.6203 63.4945
L26.5727 63.5897
" />
<path d="M26.5727 63.5897
L26.5250 63.6374
" />
<path d="M26.5250 63.6374
L26.4298 63.6850
" />
<path d="M26.4298 63.6850
L26.3346 63.6850
" />
<path d="M26.3346 63.6850
L26.2393 63.6374
" />
<path d="M26.2393 63.6374
L26.1917 63.5897
" />
<path d="M26.1917 63.5897
L26.1441 63.4945
" />
<path d="M26.1441 63.4945
L26.0965 63.3040
" />
<path d="M26.0965 63.3040
L26.0965 63.0659
" />
<path d="M26.0965 63.0659
L26.1441 62.8755
" />
<path d="M26.1441 62.8755
L26.1917 62.7802
" />
<path d="M26.1917 62.7802
L26.2393 62.7326
" />
<path d="M26.2393 62.7326
L26.3346 62.6850
" />
</g><text x="45.0148" y="69.1516"
textLength="2.1274" font-size="1.3333" lengthAdjust="spacingAndGlyphs"
text-anchor="middle" opacity="0">C7</text>
<g class="stroked-text"><desc>C7</desc>
<path d="M44.8481 68.9237
L44.8005 68.9714
" />
<path d="M44.8005 68.9714
L44.6577 69.0190
" />
<path d="M44.6577 69.0190
L44.5624 69.0190
" />
<path d="M44.5624 69.0190
L44.4196 68.9714
" />
<path d="M44.4196 68.9714
L44.3243 68.8761
" />
<path d="M44.3243 68.8761
L44.2767 68.7809
" />
<path d="M44.2767 68.7809
L44.2291 68.5904
" />
<path d="M44.2291 68.5904
L44.2291 68.4476
" />
<path d="M44.2291 68.4476
L44.2767 68.2571
" />
<path d="M44.2767 68.2571
L44.3243 68.1618
" />
<path d="M44.3243 68.1618
L44.4196 68.0666
" />
<path d="M44.4196 68.0666
L44.5624 68.0190
" />
<path d="M44.5624 68.0190
L44.6577 68.0190
" />
<path d="M44.6577 68.0190
L44.8005 68.0666
" />
<path d="M44.8005 68.0666
L44.8481 68.1142
" />
<path d="M45.1815 68.0190
L45.8481 68.0190
" />
<path d="M45.8481 68.0190
L45.4196 69.0190
" />
</g><text x="26.4728" y="29.4996"
textLength="2.1274" font-size="1.3333" lengthAdjust="spacingAndGlyphs"
text-anchor="middle" opacity="0">R7</text>
<g class="stroked-text"><desc>R7</desc>
<path d="M26.3061 29.3670
L25.9728 28.8908
" />
<path d="M25.7347 29.3670
L25.7347 28.3670
" />
<path d="M25.7347 28.3670
L26.1157 28.3670
" />
<path d="M26.1157 28.3670
L26.2109 28.4146
" />
<path d="M26.2109 28.4146
L26.2585 28.4622
" />
<path d="M26.2585 28.4622
L26.3061 28.5575
" />
<path d="M26.3061 28.5575
L26.3061 28.7003
" />
<path d="M26.3061 28.7003
L26.2585 28.7956
" />
<path d="M26.2585 28.7956
L26.2109 28.8432
" />
<path d="M26.2109 28.8432
L26.1157 28.8908
" />
<path d="M26.1157 28.8908
L25.7347 28.8908
" />
<path d="M26.6395 28.3670
L27.3061 28.3670
" />
<path d="M27.3061 28.3670
L26.8776 29.3670
" />
</g><text x="26.5236" y="27.2136"
textLength="2.1274" font-size="1.3333" lengthAdjust="spacingAndGlyphs"
text-anchor="middle" opacity="0">D4</text>
<g class="stroked-text"><desc>D4</desc>
<path d="M25.7855 27.0810
L25.7855 26.0810
" />
<path d="M25.7855 26.0810
L26.0236 26.0810
" />
<path d="M26.0236 26.0810
L26.1665 26.1286
" />
<path d="M26.1665 26.1286
L26.2617 26.2238
" />
<path d="M26.2617 26.2238
L26.3093 26.3191
" />
<path d="M26.3093 26.3191
L26.3569 26.5096
" />
<path d="M26.3569 26.5096
L26.3569 26.6524
" />
<path d="M26.3569 26.6524
L26.3093 26.8429
" />
<path d="M26.3093 26.8429
L26.2617 26.9381
" />
<path d="M26.2617 26.9381
L26.1665 27.0334
" />
<path d="M26.1665 27.0334
L26.0236 27.0810
" />
<path d="M26.0236 27.0810
L25.7855 27.0810
" />
<path d="M27.2141 26.4143
L27.2141 27.0810
" />
<path d="M26.9760 26.0334
L26.7379 26.7476
" />
<path d="M26.7379 26.7476
L27.3569 26.7476
" />
</g><text x="35.2612" y="55.9332"
textLength="1.8893" font-size="1.3333" lengthAdjust="spacingAndGlyphs"
text-anchor="middle" opacity="0">J7</text>
<g class="stroked-text"><desc>J7</desc>
<path d="M34.9279 54.8006
L34.9279 55.5149
" />
<path d="M34.9279 55.5149
L34.8802 55.6577
" />
<path d="M34.8802 55.6577
L34.7850 55.7530
" />
<path d="M34.7850 55.7530
L34.6422 55.8006
" />
<path d="M34.6422 55.8006
L34.5469 55.8006
" />
<path d="M35.3088 54.8006
L35.9755 54.8006
" />
<path d="M35.9755 54.8006
L35.5469 55.8006
" />
</g><g transform="rotate(-90.000000 45.8276 52.0364)">
<text x="45.8276" y="52.3518"
textLength="2.1710" font-size="0.8410" lengthAdjust="spacingAndGlyphs"
text-anchor="middle" opacity="0">SW1</text>
</g>
<g class="stroked-text"><desc>SW1</desc>
<path d="M46.0293 52.8774
L46.0593 52.7873
" />
<path d="M46.0593 52.7873
L46.0593 52.6371
" />
<path d="M46.0593 52.6371
L46.0293 52.5770
" />
<path d="M46.0293 52.5770
L45.9992 52.5470
" />
<path d="M45.9992 52.5470
L45.9392 52.5169
" />
<path d="M45.9392 52.5169
L45.8791 52.5169
" />
<path d="M45.8791 52.5169
L45.8190 52.5470
" />
<path d="M45.8190 52.5470
L45.7890 52.5770
" />
<path d="M45.7890 52.5770
L45.7590 52.6371
" />
<path d="M45.7590 52.6371
L45.7289 52.7572
" />
<path d="M45.7289 52.7572
L45.6989 52.8173
" />
<path d="M45.6989 52.8173
L45.6689 52.8473
" />
<path d="M45.6689 52.8473
L45.6088 52.8774
" />
<path d="M45.6088 52.8774
L45.5487 52.8774
" />
<path d="M45.5487 52.8774
L45.4887 52.8473
" />
<path d="M45.4887 52.8473
L45.4586 52.8173
" />
<path d="M45.4586 52.8173
L45.4286 52.7572
" />
<path d="M45.4286 52.7572
L45.4286 52.6070
" />
<path d="M45.4286 52.6070
L45.4586 52.5169
" />
<path d="M45.4286 52.3067
L46.0593 52.1565
" />
<path d="M46.0593 52.1565
L45.6088 52.0364
" />
<path d="M45.6088 52.0364
L46.0593 51.9163
" />
<path d="M46.0593 51.9163
L45.4286 51.7661
" />
<path d="M46.0593 51.1954
L46.0593 51.5559
" />
<path d="M46.0593 51.3757
L45.4286 51.3757
" />
<path d="M45.4286 51.3757
L45.5187 51.4357
" />
<path d="M45.5187 51.4357
L45.5788 51.4958
" />
<path d="M45.5788 51.4958
L45.6088 51.5559
" />
</g><text x="22.7584" y="33.8488"
textLength="1.8893" font-size="1.3333" lengthAdjust="spacingAndGlyphs"
text-anchor="middle" opacity="0">J6</text>
<g class="stroked-text"><desc>J6</desc>
<path d="M22.4251 32.7162
L22.4251 33.4305
" />
<path d="M22.4251 33.4305
L22.3774 33.5733
" />
<path d="M22.3774 33.5733
L22.2822 33.6686
" />
<path d="M22.2822 33.6686
L22.1394 33.7162
" />
<path d="M22.1394 33.7162
L22.0441 33.7162
" />
<path d="M23.3298 32.7162
L23.1394 32.7162
" />
<path d="M23.1394 32.7162
L23.0441 32.7638
" />
<path d="M23.0441 32.7638
L22.9965 32.8114
" />
<path d="M22.9965 32.8114
L22.9013 32.9543
" />
<path d="M22.9013 32.9543
L22.8536 33.1448
" />
<path d="M22.8536 33.1448
L22.8536 33.5257
" />
<path d="M22.8536 33.5257
L22.9013 33.6209
" />
<path d="M22.9013 33.6209
L22.9489 33.6686
" />
<path d="M22.9489 33.6686
L23.0441 33.7162
" />
<path d="M23.0441 33.7162
L23.2346 33.7162
" />
<path d="M23.2346 33.7162
L23.3298 33.6686
" />
<path d="M23.3298 33.6686
L23.3774 33.6209
" />
<path d="M23.3774 33.6209
L23.4251 33.5257
" />
<path d="M23.4251 33.5257
L23.4251 33.2876
" />
<path d="M23.4251 33.2876
L23.3774 33.1924
" />
<path d="M23.3774 33.1924
L23.3298 33.1448
" />
<path d="M23.3298 33.1448
L23.2346 33.0971
" />
<path d="M23.2346 33.0971
L23.0441 33.0971
" />
<path d="M23.0441 33.0971
L22.9489 33.1448
" />
<path d="M22.9489 33.1448
L22.9013 33.1924
" />
<path d="M22.9013 33.1924
L22.8536 33.2876
" />
</g><g transform="rotate(-90.000000 29.5140 79.0112)">
<text x="29.5140" y="79.5112"
textLength="1.8893" font-size="1.3333" lengthAdjust="spacingAndGlyphs"
text-anchor="middle" opacity="0">J8</text>
</g>
<g class="stroked-text"><desc>J8</desc>
<path d="M28.8814 79.3445
L29.5957 79.3445
" />
<path d="M29.5957 79.3445
L29.7385 79.3922
" />
<path d="M29.7385 79.3922
L29.8338 79.4874
" />
<path d="M29.8338 79.4874
L29.8814 79.6302
" />
<path d="M29.8814 79.6302
L29.8814 79.7255
" />
<path d="M29.3100 78.7255
L29.2623 78.8207
" />
<path d="M29.2623 78.8207
L29.2147 78.8683
" />
<path d="M29.2147 78.8683
L29.1195 78.9160
" />
<path d="M29.1195 78.9160
L29.0719 78.9160
" />
<path d="M29.0719 78.9160
L28.9766 78.8683
" />
<path d="M28.9766 78.8683
L28.9290 78.8207
" />
<path d="M28.9290 78.8207
L28.8814 78.7255
" />
<path d="M28.8814 78.7255
L28.8814 78.5350
" />
<path d="M28.8814 78.5350
L28.9290 78.4398
" />
<path d="M28.9290 78.4398
L28.9766 78.3922
" />
<path d="M28.9766 78.3922
L29.0719 78.3445
" />
<path d="M29.0719 78.3445
L29.1195 78.3445
" />
<path d="M29.1195 78.3445
L29.2147 78.3922
" />
<path d="M29.2147 78.3922
L29.2623 78.4398
" />
<path d="M29.2623 78.4398
L29.3100 78.5350
" />
<path d="M29.3100 78.5350
L29.3100 78.7255
" />
<path d="M29.3100 78.7255
L29.3576 78.8207
" />
<path d="M29.3576 78.8207
L29.4052 78.8683
" />
<path d="M29.4052 78.8683
L29.5004 78.9160
" />
<path d="M29.5004 78.9160
L29.6909 78.9160
" />
<path d="M29.6909 78.9160
L29.7861 78.8683
" />
<path d="M29.7861 78.8683
L29.8338 78.8207
" />
<path d="M29.8338 78.8207
L29.8814 78.7255
" />
<path d="M29.8814 78.7255
L29.8814 78.5350
" />
<path d="M29.8814 78.5350
L29.8338 78.4398
" />
<path d="M29.8338 78.4398
L29.7861 78.3922
" />
<path d="M29.7861 78.3922
L29.6909 78.3445
" />
<path d="M29.6909 78.3445
L29.5004 78.3445
" />
<path d="M29.5004 78.3445
L29.4052 78.3922
" />
<path d="M29.4052 78.3922
L29.3576 78.4398
" />
<path d="M29.3576 78.4398
L29.3100 78.5350
" />
</g><text x="28.0416" y="33.8488"
textLength="1.8893" font-size="1.3333" lengthAdjust="spacingAndGlyphs"
text-anchor="middle" opacity="0">J3</text>
<g class="stroked-text"><desc>J3</desc>
<path d="M27.7083 32.7162
L27.7083 33.4305
" />
<path d="M27.7083 33.4305
L27.6606 33.5733
" />
<path d="M27.6606 33.5733
L27.5654 33.6686
" />
<path d="M27.5654 33.6686
L27.4226 33.7162
" />
<path d="M27.4226 33.7162
L27.3273 33.7162
" />
<path d="M28.0892 32.7162
L28.7083 32.7162
" />
<path d="M28.7083 32.7162
L28.3749 33.0971
" />
<path d="M28.3749 33.0971
L28.5178 33.0971
" />
<path d="M28.5178 33.0971
L28.6130 33.1448
" />
<path d="M28.6130 33.1448
L28.6606 33.1924
" />
<path d="M28.6606 33.1924
L28.7083 33.2876
" />
<path d="M28.7083 33.2876
L28.7083 33.5257
" />
<path d="M28.7083 33.5257
L28.6606 33.6209
" />
<path d="M28.6606 33.6209
L28.6130 33.6686
" />
<path d="M28.6130 33.6686
L28.5178 33.7162
" />
<path d="M28.5178 33.7162
L28.2321 33.7162
" />
<path d="M28.2321 33.7162
L28.1368 33.6686
" />
<path d="M28.1368 33.6686
L28.0892 33.6209
" />
</g><g transform="rotate(-90.000000 27.0824 63.3648)">
<text x="27.0824" y="63.8648"
textLength="2.1274" font-size="1.3333" lengthAdjust="spacingAndGlyphs"
text-anchor="middle" opacity="0">R1</text>
</g>
<g class="stroked-text"><desc>R1</desc>
<path d="M27.4498 63.5315
L26.9736 63.8648
" />
<path d="M27.4498 64.1029
L26.4498 64.1029
" />
<path d="M26.4498 64.1029
L26.4498 63.7219
" />
<path d="M26.4498 63.7219
L26.4974 63.6267
" />
<path d="M26.4974 63.6267
L26.5450 63.5791
" />
<path d="M26.5450 63.5791
L26.6403 63.5315
" />
<path d="M26.6403 63.5315
L26.7831 63.5315
" />
<path d="M26.7831 63.5315
L26.8784 63.5791
" />
<path d="M26.8784 63.5791
L26.9260 63.6267
" />
<path d="M26.9260 63.6267
L26.9736 63.7219
" />
<path d="M26.9736 63.7219
L26.9736 64.1029
" />
<path d="M27.4498 62.5791
L27.4498 63.1505
" />
<path d="M27.4498 62.8648
L26.4498 62.8648
" />
<path d="M26.4498 62.8648
L26.5926 62.9600
" />
<path d="M26.5926 62.9600
L26.6879 63.0553
" />
<path d="M26.6879 63.0553
L26.7355 63.1505
" />
</g><text x="25.4060" y="66.6116"
textLength="2.1274" font-size="1.3333" lengthAdjust="spacingAndGlyphs"
text-anchor="middle" opacity="0">C9</text>
<g class="stroked-text"><desc>C9</desc>
<path d="M25.2393 66.3837
L25.1917 66.4314
" />
<path d="M25.1917 66.4314
L25.0489 66.4790
" />
<path d="M25.0489 66.4790
L24.9536 66.4790
" />
<path d="M24.9536 66.4790
L24.8108 66.4314
" />
<path d="M24.8108 66.4314
L24.7155 66.3361
" />
<path d="M24.7155 66.3361
L24.6679 66.2409
" />
<path d="M24.6679 66.2409
L24.6203 66.0504
" />
<path d="M24.6203 66.0504
L24.6203 65.9076
" />
<path d="M24.6203 65.9076
L24.6679 65.7171
" />
<path d="M24.6679 65.7171
L24.7155 65.6218
" />
<path d="M24.7155 65.6218
L24.8108 65.5266
" />
<path d="M24.8108 65.5266
L24.9536 65.4790
" />
<path d="M24.9536 65.4790
L25.0489 65.4790
" />
<path d="M25.0489 65.4790
L25.1917 65.5266
" />
<path d="M25.1917 65.5266
L25.2393 65.5742
" />
<path d="M25.7155 66.4790
L25.9060 66.4790
" />
<path d="M25.9060 66.4790
L26.0012 66.4314
" />
<path d="M26.0012 66.4314
L26.0489 66.3837
" />
<path d="M26.0489 66.3837
L26.1441 66.2409
" />
<path d="M26.1441 66.2409
L26.1917 66.0504
" />
<path d="M26.1917 66.0504
L26.1917 65.6695
" />
<path d="M26.1917 65.6695
L26.1441 65.5742
" />
<path d="M26.1441 65.5742
L26.0965 65.5266
" />
<path d="M26.0965 65.5266
L26.0012 65.4790
" />
<path d="M26.0012 65.4790
L25.8108 65.4790
" />
<path d="M25.8108 65.4790
L25.7155 65.5266
" />
<path d="M25.7155 65.5266
L25.6679 65.5742
" />
<path d="M25.6679 65.5742
L25.6203 65.6695
" />
<path d="M25.6203 65.6695
L25.6203 65.9076
" />
<path d="M25.6203 65.9076
L25.6679 66.0028
" />
<path d="M25.6679 66.0028
L25.7155 66.0504
" />
<path d="M25.7155 66.0504
L25.8108 66.0980
" />
<path d="M25.8108 66.0980
L26.0012 66.0980
" />
<path d="M26.0012 66.0980
L26.0965 66.0504
" />
<path d="M26.0965 66.0504
L26.1441 66.0028
" />
<path d="M26.1441 66.0028
L26.1917 65.9076
" />
</g><text x="48.7580" y="77.1500"
textLength="2.1274" font-size="1.3333" lengthAdjust="spacingAndGlyphs"
text-anchor="middle" opacity="0">R4</text>
<g class="stroked-text"><desc>R4</desc>
<path d="M48.5913 77.0174
L48.2580 76.5412
" />
<path d="M48.0199 77.0174
L48.0199 76.0174
" />
<path d="M48.0199 76.0174
L48.4009 76.0174
" />
<path d="M48.4009 76.0174
L48.4961 76.0650
" />
<path d="M48.4961 76.0650
L48.5437 76.1126
" />
<path d="M48.5437 76.1126
L48.5913 76.2079
" />
<path d="M48.5913 76.2079
L48.5913 76.3507
" />
<path d="M48.5913 76.3507
L48.5437 76.4460
" />
<path d="M48.5437 76.4460
L48.4961 76.4936
" />
<path d="M48.4961 76.4936
L48.4009 76.5412
" />
<path d="M48.4009 76.5412
L48.0199 76.5412
" />
<path d="M49.4485 76.3507
L49.4485 77.0174
" />
<path d="M49.2104 75.9698
L48.9723 76.6840
" />
<path d="M48.9723 76.6840
L49.5913 76.6840
" />
</g><text x="44.9640" y="70.3936"
textLength="2.1274" font-size="1.3333" lengthAdjust="spacingAndGlyphs"
text-anchor="middle" opacity="0">R5</text>
<g class="stroked-text"><desc>R5</desc>
<path d="M44.7973 70.2610
L44.4640 69.7848
" />
<path d="M44.2259 70.2610
L44.2259 69.2610
" />
<path d="M44.2259 69.2610
L44.6069 69.2610
" />
<path d="M44.6069 69.2610
L44.7021 69.3086
" />
<path d="M44.7021 69.3086
L44.7497 69.3562
" />
<path d="M44.7497 69.3562
L44.7973 69.4515
" />
<path d="M44.7973 69.4515
L44.7973 69.5943
" />
<path d="M44.7973 69.5943
L44.7497 69.6896
" />
<path d="M44.7497 69.6896
L44.7021 69.7372
" />
<path d="M44.7021 69.7372
L44.6069 69.7848
" />
<path d="M44.6069 69.7848
L44.2259 69.7848
" />
<path d="M45.7021 69.2610
L45.2259 69.2610
" />
<path d="M45.2259 69.2610
L45.1783 69.7372
" />
<path d="M45.1783 69.7372
L45.2259 69.6896
" />
<path d="M45.2259 69.6896
L45.3211 69.6419
" />
<path d="M45.3211 69.6419
L45.5592 69.6419
" />
<path d="M45.5592 69.6419
L45.6545 69.6896
" />
<path d="M45.6545 69.6896
L45.7021 69.7372
" />
<path d="M45.7021 69.7372
L45.7497 69.8324
" />
<path d="M45.7497 69.8324
L45.7497 70.0705
" />
<path d="M45.7497 70.0705
L45.7021 70.1657
" />
<path d="M45.7021 70.1657
L45.6545 70.2134
" />
<path d="M45.6545 70.2134
L45.5592 70.2610
" />
<path d="M45.5592 70.2610
L45.3211 70.2610
" />
<path d="M45.3211 70.2610
L45.2259 70.2134
" />
<path d="M45.2259 70.2134
L45.1783 70.1657
" />
</g><text x="49.0728" y="73.8534"
textLength="1.8893" font-size="1.3333" lengthAdjust="spacingAndGlyphs"
text-anchor="middle" opacity="0">J9</text>
<g class="stroked-text"><desc>J9</desc>
<path d="M48.7395 72.7208
L48.7395 73.4351
" />
<path d="M48.7395 73.4351
L48.6918 73.5779
" />
<path d="M48.6918 73.5779
L48.5966 73.6732
" />
<path d="M48.5966 73.6732
L48.4538 73.7208
" />
<path d="M48.4538 73.7208
L48.3585 73.7208
" />
<path d="M49.2633 73.7208
L49.4538 73.7208
" />
<path d="M49.4538 73.7208
L49.5490 73.6732
" />
<path d="M49.5490 73.6732
L49.5966 73.6255
" />
<path d="M49.5966 73.6255
L49.6918 73.4827
" />
<path d="M49.6918 73.4827
L49.7395 73.2922
" />
<path d="M49.7395 73.2922
L49.7395 72.9113
" />
<path d="M49.7395 72.9113
L49.6918 72.8160
" />
<path d="M49.6918 72.8160
L49.6442 72.7684
" />
<path d="M49.6442 72.7684
L49.5490 72.7208
" />
<path d="M49.5490 72.7208
L49.3585 72.7208
" />
<path d="M49.3585 72.7208
L49.2633 72.7684
" />
<path d="M49.2633 72.7684
L49.2157 72.8160
" />
<path d="M49.2157 72.8160
L49.1680 72.9113
" />
<path d="M49.1680 72.9113
L49.1680 73.1494
" />
<path d="M49.1680 73.1494
L49.2157 73.2446
" />
<path d="M49.2157 73.2446
L49.2633 73.2922
" />
<path d="M49.2633 73.2922
L49.3585 73.3398
" />
<path d="M49.3585 73.3398
L49.5490 73.3398
" />
<path d="M49.5490 73.3398
L49.6442 73.2922
" />
<path d="M49.6442 73.2922
L49.6918 73.2446
" />
<path d="M49.6918 73.2446
L49.7395 73.1494
" />
</g><text x="39.1828" y="57.7330"
textLength="1.9845" font-size="1.3333" lengthAdjust="spacingAndGlyphs"
text-anchor="middle" opacity="0">Y2</text>
<g class="stroked-text"><desc>Y2</desc>
<path d="M38.7066 57.1242
L38.7066 57.6004
" />
<path d="M38.3733 56.6004
L38.7066 57.1242
" />
<path d="M38.7066 57.1242
L39.0399 56.6004
" />
<path d="M39.3257 56.6956
L39.3733 56.6480
" />
<path d="M39.3733 56.6480
L39.4685 56.6004
" />
<path d="M39.4685 56.6004
L39.7066 56.6004
" />
<path d="M39.7066 56.6004
L39.8018 56.6480
" />
<path d="M39.8018 56.6480
L39.8495 56.6956
" />
<path d="M39.8495 56.6956
L39.8971 56.7909
" />
<path d="M39.8971 56.7909
L39.8971 56.8861
" />
<path d="M39.8971 56.8861
L39.8495 57.0290
" />
<path d="M39.8495 57.0290
L39.2780 57.6004
" />
<path d="M39.2780 57.6004
L39.8971 57.6004
" />
</g><text x="25.3044" y="73.9320"
textLength="2.1274" font-size="1.3333" lengthAdjust="spacingAndGlyphs"
text-anchor="middle" opacity="0">D5</text>
<g class="stroked-text"><desc>D5</desc>
<path d="M24.5663 73.7994
L24.5663 72.7994
" />
<path d="M24.5663 72.7994
L24.8044 72.7994
" />
<path d="M24.8044 72.7994
L24.9473 72.8470
" />
<path d="M24.9473 72.8470
L25.0425 72.9422
" />
<path d="M25.0425 72.9422
L25.0901 73.0375
" />
<path d="M25.0901 73.0375
L25.1377 73.2280
" />
<path d="M25.1377 73.2280
L25.1377 73.3708
" />
<path d="M25.1377 73.3708
L25.0901 73.5613
" />
<path d="M25.0901 73.5613
L25.0425 73.6565
" />
<path d="M25.0425 73.6565
L24.9473 73.7518
" />
<path d="M24.9473 73.7518
L24.8044 73.7994
" />
<path d="M24.8044 73.7994
L24.5663 73.7994
" />
<path d="M26.0425 72.7994
L25.5663 72.7994
" />
<path d="M25.5663 72.7994
L25.5187 73.2756
" />
<path d="M25.5187 73.2756
L25.5663 73.2280
" />
<path d="M25.5663 73.2280
L25.6615 73.1803
" />
<path d="M25.6615 73.1803
L25.8996 73.1803
" />
<path d="M25.8996 73.1803
L25.9949 73.2280
" />
<path d="M25.9949 73.2280
L26.0425 73.2756
" />
<path d="M26.0425 73.2756
L26.0901 73.3708
" />
<path d="M26.0901 73.3708
L26.0901 73.6089
" />
<path d="M26.0901 73.6089
L26.0425 73.7041
" />
<path d="M26.0425 73.7041
L25.9949 73.7518
" />
<path d="M25.9949 73.7518
L25.8996 73.7994
" />
<path d="M25.8996 73.7994
L25.6615 73.7994
" />
<path d="M25.6615 73.7994
L25.5663 73.7518
" />
<path d="M25.5663 73.7518
L25.5187 73.7041
" />
</g><text x="26.7776" y="71.4848"
textLength="2.1750" font-size="1.3333" lengthAdjust="spacingAndGlyphs"
text-anchor="middle" opacity="0">U3</text>
<g class="stroked-text"><desc>U3</desc>
<path d="M26.0157 70.3522
L26.0157 71.1617
" />
<path d="M26.0157 71.1617
L26.0633 71.2569
" />
<path d="M26.0633 71.2569
L26.1109 71.3046
" />
<path d="M26.1109 71.3046
L26.2062 71.3522
" />
<path d="M26.2062 71.3522
L26.3966 71.3522
" />
<path d="M26.3966 71.3522
L26.4919 71.3046
" />
<path d="M26.4919 71.3046
L26.5395 71.2569
" />
<path d="M26.5395 71.2569
L26.5871 71.1617
" />
<path d="M26.5871 71.1617
L26.5871 70.3522
" />
<path d="M26.9681 70.3522
L27.5871 70.3522
" />
<path d="M27.5871 70.3522
L27.2538 70.7331
" />
<path d="M27.2538 70.7331
L27.3966 70.7331
" />
<path d="M27.3966 70.7331
L27.4919 70.7808
" />
<path d="M27.4919 70.7808
L27.5395 70.8284
" />
<path d="M27.5395 70.8284
L27.5871 70.9236
" />
<path d="M27.5871 70.9236
L27.5871 71.1617
" />
<path d="M27.5871 71.1617
L27.5395 71.2569
" />
<path d="M27.5395 71.2569
L27.4919 71.3046
" />
<path d="M27.4919 71.3046
L27.3966 71.3522
" />
<path d="M27.3966 71.3522
L27.1109 71.3522
" />
<path d="M27.1109 71.3522
L27.0157 71.3046
" />
<path d="M27.0157 71.3046
L26.9681 71.2569
" />
</g></g>
<g style="fill:#000000; fill-opacity:0.0; 
stroke:#000000; stroke-width:0.1200; stroke-opacity:1; 
stroke-linecap:round; stroke-linejoin:round;">
<path d="M44.2884 21.1744
L45.6184 21.1744
" />
<path d="M44.2884 22.5044
L44.2884 21.1744
" />
<path d="M44.2884 23.7744
L44.2884 46.6944
" />
<path d="M44.2884 23.7744
L46.9484 23.7744
" />
<path d="M44.2884 46.6944
L46.9484 46.6944
" />
<path d="M46.9484 23.7744
L46.9484 46.6944
" />
<path d="M49.5716 28.9144
L52.2316 28.9144
" />
<path d="M49.5716 23.7744
L49.5716 28.9144
" />
<path d="M49.5716 22.5044
L49.5716 21.1744
" />
<path d="M52.2316 23.7744
L52.2316 28.9144
" />
<path d="M49.5716 21.1744
L50.9016 21.1744
" />
<path d="M49.5716 23.7744
L52.2316 23.7744
" />
<path d="M46.9300 28.9144
L49.5900 28.9144
" />
<path d="M46.9300 23.7744
L46.9300 28.9144
" />
<path d="M46.9300 22.5044
L46.9300 21.1744
" />
<path d="M49.5900 23.7744
L49.5900 28.9144
" />
<path d="M46.9300 21.1744
L48.2600 21.1744
" />
<path d="M46.9300 23.7744
L49.5900 23.7744
" />
<path d="M26.2623 22.9550
L26.7849 22.9550
" />
<path d="M26.2623 24.4250
L26.7849 24.4250
" />
<path d="M26.2623 25.2918
L26.7849 25.2918
" />
<path d="M26.2623 26.7618
L26.7849 26.7618
" />
<path d="M37.2932 73.4540
L40.7432 73.4540
" />
<path d="M37.2932 73.4540
L35.3432 73.4540
" />
<path d="M37.2932 63.3340
L39.2432 63.3340
" />
<path d="M37.2932 63.3340
L35.3432 63.3340
" />
<path d="M24.0760 34.3488
L25.4060 34.3488
" />
<path d="M24.0760 35.6788
L24.0760 34.3488
" />
<path d="M24.0760 36.9488
L24.0760 59.8688
" />
<path d="M24.0760 36.9488
L26.7360 36.9488
" />
<path d="M24.0760 59.8688
L26.7360 59.8688
" />
<path d="M26.7360 36.9488
L26.7360 59.8688
" />
<path d="M32.9160 77.9308
L34.9760 77.9308
" />
<path d="M32.9160 79.6408
L32.9160 77.9308
" />
<path d="M32.9160 83.7508
L32.9160 82.1408
" />
<path d="M32.9160 83.7508
L40.6360 83.7508
" />
<path d="M34.9760 77.9308
L34.9760 77.3408
" />
<path d="M40.6360 77.9308
L38.5760 77.9308
" />
<path d="M40.6360 79.6408
L40.6360 77.9308
" />
<path d="M40.6360 83.7508
L40.6360 82.1408
" />
<path d="M47.7653 61.8646
L47.2427 61.8646
" />
<path d="M47.7653 60.3946
L47.2427 60.3946
" />
<path d="M30.8058 30.4826
L30.8058 24.2326
" />
<path d="M35.8558 30.4826
L35.8558 24.2326
" />
<path d="M30.8058 30.4826 A2.5250 2.5250 0.0 0 0 35.8558 30.4826" />
<path d="M35.8558 24.2326 A2.5250 2.5250 0.0 0 0 30.8058 24.2326" />
<path d="M30.9702 63.5753
L30.9702 63.0527
" />
<path d="M32.4402 63.5753
L32.4402 63.0527
" />
<path d="M42.7902 74.7492
L42.7902 76.6692
" />
<path d="M42.7902 76.6692
L45.6502 76.6692
" />
<path d="M45.6502 74.7492
L42.7902 74.7492
" />
<path d="M42.7832 77.3400
L42.7832 79.2600
" />
<path d="M42.7832 79.2600
L45.6432 79.2600
" />
<path d="M45.6432 77.3400
L42.7832 77.3400
" />
<path d="M40.7060 54.4332
L39.3760 54.4332
" />
<path d="M40.7060 53.1032
L40.7060 54.4332
" />
<path d="M40.7060 51.8332
L40.7060 46.6932
" />
<path d="M40.7060 51.8332
L38.0460 51.8332
" />
<path d="M40.7060 46.6932
L38.0460 46.6932
" />
<path d="M38.0460 51.8332
L38.0460 46.6932
" />
<path d="M47.2427 57.7530
L47.7653 57.7530
" />
<path d="M47.2427 59.2230
L47.7653 59.2230
" />
<path d="M48.5887 74.9742
L49.0429 74.9742
" />
<path d="M48.5887 76.4442
L49.0429 76.4442
" />
<path d="M25.6673 62.3726
L25.1447 62.3726
" />
<path d="M25.6673 60.9026
L25.1447 60.9026
" />
<path d="M45.2761 67.7066
L44.7535 67.7066
" />
<path d="M45.2761 66.2366
L44.7535 66.2366
" />
<path d="M26.2457 29.9146
L26.6999 29.9146
" />
<path d="M26.2457 31.3846
L26.6999 31.3846
" />
</g>
<g style="fill:#000000; fill-opacity:0.0; 
stroke:#000000; stroke-width:0.1500; stroke-opacity:1; 
stroke-linecap:round; stroke-linejoin:round;">
<path d="M41.2230 36.1178
L40.9980 36.1178
" />
<path d="M41.2230 36.1178
L41.2230 36.4428
" />
<path d="M40.9980 36.1178
L40.9980 34.6928
" />
<path d="M33.9730 36.1178
L34.2980 36.1178
" />
<path d="M33.9730 36.1178
L33.9730 36.4428
" />
<path d="M41.2230 43.3678
L41.2230 43.0428
" />
<path d="M41.2230 43.3678
L40.8980 43.3678
" />
<path d="M33.9730 43.3678
L33.9730 43.0428
" />
<path d="M33.9730 43.3678
L34.2980 43.3678
" />
</g>
<g style="fill:#000000; fill-opacity:0.0; 
stroke:#000000; stroke-width:0.1200; stroke-opacity:1; 
stroke-linecap:round; stroke-linejoin:round;">
<path d="M24.6636 27.4036
L24.6636 29.3236
" />
<path d="M24.6636 29.3236
L27.5236 29.3236
" />
<path d="M27.5236 27.4036
L24.6636 27.4036
" />
<path d="M44.7369 68.5226
L45.1911 68.5226
" />
<path d="M44.7369 69.9926
L45.1911 69.9926
" />
<path d="M36.5912 54.4332
L35.2612 54.4332
" />
<path d="M36.5912 53.1032
L36.5912 54.4332
" />
<path d="M36.5912 51.8332
L36.5912 49.2332
" />
<path d="M36.5912 51.8332
L33.9312 51.8332
" />
<path d="M36.5912 49.2332
L33.9312 49.2332
" />
<path d="M33.9312 51.8332
L33.9312 49.2332
" />
</g>
<g style="fill:#000000; fill-opacity:0.0; 
stroke:#000000; stroke-width:0.1270; stroke-opacity:1; 
stroke-linecap:round; stroke-linejoin:round;">
<path d="M44.8276 55.0364
L46.8276 55.0364
" />
<path d="M42.8276 54.0364
L42.8276 50.0364
" />
<path d="M48.8276 54.0364
L48.8276 50.0364
" />
<path d="M44.8276 49.0364
L46.8276 49.0364
" />
</g>
<g style="fill:#000000; fill-opacity:0.0; 
stroke:#000000; stroke-width:0.2000; stroke-opacity:1; 
stroke-linecap:round; stroke-linejoin:round;">
<circle cx="43.5565" cy="56.7694" r="0.1000" /> 
</g>
<g style="fill:#000000; fill-opacity:0.0; 
stroke:#000000; stroke-width:0.1270; stroke-opacity:1; 
stroke-linecap:round; stroke-linejoin:round;">
<circle cx="45.8276" cy="52.0364" r="1.1180" /> 
</g>
<g style="fill:#000000; fill-opacity:0.0; 
stroke:#000000; stroke-width:0.1200; stroke-opacity:1; 
stroke-linecap:round; stroke-linejoin:round;">
<path d="M21.4284 34.3488
L22.7584 34.3488
" />
<path d="M21.4284 35.6788
L21.4284 34.3488
" />
<path d="M21.4284 36.9488
L21.4284 59.8688
" />
<path d="M21.4284 36.9488
L24.0884 36.9488
" />
<path d="M21.4284 59.8688
L24.0884 59.8688
" />
<path d="M24.0884 36.9488
L24.0884 59.8688
" />
<path d="M28.5140 77.6812
L28.5140 79.0112
" />
<path d="M27.1840 77.6812
L28.5140 77.6812
" />
<path d="M25.9140 77.6812
L23.3140 77.6812
" />
<path d="M25.9140 77.6812
L25.9140 80.3412
" />
<path d="M23.3140 77.6812
L23.3140 80.3412
" />
<path d="M25.9140 80.3412
L23.3140 80.3412
" />
<path d="M26.7116 34.3488
L28.0416 34.3488
" />
<path d="M26.7116 35.6788
L26.7116 34.3488
" />
<path d="M26.7116 36.9488
L26.7116 59.8688
" />
<path d="M26.7116 36.9488
L29.3716 36.9488
" />
<path d="M26.7116 59.8688
L29.3716 59.8688
" />
<path d="M29.3716 36.9488
L29.3716 59.8688
" />
<path d="M28.3794 63.5411
L28.3794 63.0869
" />
<path d="M29.8494 63.5411
L29.8494 63.0869
" />
<path d="M25.6673 65.1666
L25.1447 65.1666
" />
<path d="M25.6673 63.6966
L25.1447 63.6966
" />
<path d="M48.5309 77.5650
L48.9851 77.5650
" />
<path d="M48.5309 79.0350
L48.9851 79.0350
" />
<path d="M44.7369 70.8086
L45.1911 70.8086
" />
<path d="M44.7369 72.2786
L45.1911 72.2786
" />
<path d="M50.4028 72.3534
L49.0728 72.3534
" />
<path d="M50.4028 71.0234
L50.4028 72.3534
" />
<path d="M50.4028 69.7534
L50.4028 67.1534
" />
<path d="M50.4028 69.7534
L47.7428 69.7534
" />
<path d="M50.4028 67.1534
L47.7428 67.1534
" />
<path d="M47.7428 69.7534
L47.7428 67.1534
" />
<path d="M42.3078 62.2830
L36.0578 62.2830
" />
<path d="M42.3078 57.2330
L36.0578 57.2330
" />
<path d="M42.3078 62.2830 A2.5250 2.5250 0.0 0 0 42.3078 57.2330" />
<path d="M36.0578 57.2330 A2.5250 2.5250 0.0 0 0 36.0578 62.2830" />
<path d="M22.8444 74.1170
L22.8444 76.3870
" />
<path d="M22.8444 76.3870
L26.9044 76.3870
" />
<path d="M26.9044 74.1170
L22.8444 74.1170
" />
<path d="M22.9824 66.0000
L28.9924 66.0000
" />
<path d="M25.2324 72.8200
L28.9924 72.8200
" />
<path d="M28.9924 66.0000
L28.9924 67.2600
" />
<path d="M28.9924 72.8200
L28.9924 71.5600
" />
<g >
</g>
<g >
</g>
<g >
</g>
<g >
</g>
<g >
</g>
<g >
</g>
<g >
</g>
<g >
</g>
<g >
</g>
<g >
</g>
<g >
</g>
<g >
</g>
<g >
</g>
<g >
</g>
<g >
</g>
<g >
</g>
<g >
</g>
<g >
</g>
<g >
</g>
<g >
</g>
<g >
</g>
<g >
</g>
<g >
</g>
<g >
</g>
<g >
</g>
<g >
</g>
<g >
</g>
<g >
</g>
<g >
</g>
<g >
</g>
<g >
</g>
<g >
</g>
<g >
</g>
<g >
</g>
<g >
</g>
<g >
</g>
<g >
</g>
<g >
</g>
</g>
<g style="fill:#000000; fill-opacity:0.0; 
stroke:#000000; stroke-width:0.1200; stroke-opacity:1; 
stroke-linecap:round; stroke-linejoin:round;">
</g>
<g style="fill:#000000; fill-opacity:0.0; 
stroke:#000000; stroke-width:0.2000; stroke-opacity:1; 
stroke-linecap:round; stroke-linejoin:round;">
<path d="M20.1736 17.2384
L20.1736 82.3132
" />
<path d="M53.1936 17.2384
L53.1936 82.3132
" />
<path d="M20.1736 17.2384
L53.1936 17.2384
" />
<path d="M20.1736 82.3132
L53.1936 82.3132
" />
<g >
</g>
<g >
</g>
<g >
</g>
<g >
</g>
<g >
</g>
<g >
</g>
<g >
</g>
<g >
</g>
<g >
</g>
<g >
</g>
<g >
</g>
<g >
</g>
<g >
</g>
<g >
</g>
<g >
</g>
<g >
</g>
<g >
</g>
<g >
</g>
<g >
</g>
<g >
</g>
<g >
</g>
<g >
</g>
<g >
</g>
<g >
</g>
<g >
</g>
<g >
</g>
<g >
</g>
<g >
</g>
<g >
</g>
<g >
</g>
<g >
</g>
<g >
</g>
<g >
</g>
<g >
</g>
<g >
</g>
<g >
</g>
<g >
</g>
<g >
</g>
</g> 
</svg>
